<svg width="22" height="20" viewBox="0 0 22 20" fill="none" xmlns="http://www.w3.org/2000/svg">
<path d="M19.2611 4.2769H5.18594L4.97723 1.7344C4.96074 1.53371 4.87597 1.34702 4.73963 1.2111C4.60329 1.07518 4.42524 0.99987 4.24055 1H2.73915C2.54312 1 2.35511 1.08496 2.21649 1.23619C2.07787 1.38742 2 1.59253 2 1.8064C2 2.02027 2.07787 2.22538 2.21649 2.37661C2.35511 2.52784 2.54312 2.6128 2.73915 2.6128H3.5641L4.41461 12.9475C4.47483 13.6927 4.84358 14.5009 5.47962 15.0499C4.33377 16.6465 5.38062 19 7.245 19C8.79177 19 9.88235 17.317 9.35191 15.7222H13.3983C12.8686 17.3152 13.9567 19 15.506 19C16.1002 18.9993 16.67 18.7414 17.0902 18.283C17.5104 17.8246 17.7467 17.203 17.7474 16.5547C17.7467 15.9064 17.5104 15.2848 17.0902 14.8264C16.67 14.368 16.1002 14.1101 15.506 14.1094H7.24995C6.68816 14.1094 6.19897 13.7404 5.98778 13.2013L17.8018 12.4435C17.959 12.4335 18.1091 12.369 18.2304 12.2594C18.3516 12.1498 18.4376 12.0008 18.4758 11.8342L19.978 5.2795C20.0052 5.16053 20.0072 5.03636 19.9838 4.91643C19.9605 4.79649 19.9124 4.68394 19.8432 4.5873C19.774 4.49067 19.6856 4.41249 19.5846 4.35871C19.4836 4.30493 19.3727 4.27695 19.2603 4.2769H19.2611ZM7.24417 17.3872C7.04793 17.3772 6.86275 17.2852 6.7271 17.1301C6.59145 16.9751 6.51577 16.769 6.51577 16.5547C6.51577 16.3404 6.59145 16.1343 6.7271 15.9792C6.86275 15.8242 7.04793 15.7322 7.24417 15.7222C7.44042 15.7322 7.6256 15.8242 7.76125 15.9792C7.89689 16.1343 7.97258 16.3404 7.97258 16.5547C7.97258 16.769 7.89689 16.9751 7.76125 17.1301C7.6256 17.2852 7.44042 17.3772 7.24417 17.3872ZM15.506 17.3872C15.3098 17.3772 15.1246 17.2852 14.9889 17.1301C14.8533 16.9751 14.7776 16.769 14.7776 16.5547C14.7776 16.3404 14.8533 16.1343 14.9889 15.9792C15.1246 15.8242 15.3098 15.7322 15.506 15.7222C15.7022 15.7322 15.8874 15.8242 16.0231 15.9792C16.1587 16.1343 16.2344 16.3404 16.2344 16.5547C16.2344 16.769 16.1587 16.9751 16.0231 17.1301C15.8874 17.2852 15.7022 17.3772 15.506 17.3872ZM17.1732 10.8685L5.78897 11.5975L5.31875 5.8906H18.3141L17.1732 10.8676V10.8685Z" fill="#1D2025"/>
</svg>
